<svg width="300" height="102" viewBox="0 0 300 102" fill="none" xmlns="http://www.w3.org/2000/svg">
<g clip-path="url(#clip0_5155_3)">
<g opacity="0.5">
<path d="M291.994 76.61C294.899 71.7042 297.652 66.0185 296.038 59.9715C295.009 56.1198 292.493 52.8343 289.042 50.8379C285.591 48.8415 281.488 48.2978 277.637 49.3263C273.975 50.304 271.384 51.8739 269.03 54.9507C267.892 56.4379 265.864 56.9794 264.136 56.2574C260.561 54.7637 257.533 54.6941 253.871 55.6719C250.02 56.7004 246.734 59.2169 244.738 62.6677C242.741 66.1186 242.198 70.2212 243.226 74.073C244.848 80.1463 250.042 83.7097 255.026 86.481L275.51 98.3316C277.131 99.2693 279.205 98.7155 280.143 97.0945L291.994 76.61Z" fill="white"/>
<path d="M200.735 92.9649C202.537 89.9153 204.245 86.3814 203.238 82.6253C202.597 80.2328 201.032 78.1929 198.887 76.9545C196.742 75.716 194.192 75.3804 191.8 76.0215C189.525 76.6309 187.917 77.6077 186.456 79.5206C185.749 80.4452 184.49 80.7827 183.416 80.335C181.194 79.409 179.313 79.3674 177.038 79.9769C174.646 80.6179 172.606 82.1832 171.367 84.3283C170.129 86.4734 169.793 89.0226 170.434 91.4151C171.445 95.1875 174.674 97.3986 177.772 99.1177L190.505 106.469C191.513 107.051 192.801 106.706 193.383 105.698L200.735 92.9649Z" fill="white"/>
<path d="M51.191 27.2648C53.9016 22.1579 56.4398 16.2583 54.6706 10.1252C53.5437 6.21856 50.9702 2.93728 47.5161 1.00323C44.062 -0.930812 40.0104 -1.35919 36.2525 -0.187669C32.6799 0.926092 30.1788 2.61195 27.9552 5.83142C26.8804 7.38761 24.9019 8.00439 23.1807 7.31985C19.6199 5.90367 16.6392 5.92677 13.0666 7.04053C9.30872 8.21205 6.1524 10.8875 4.29201 14.4783C2.43162 18.0692 2.01956 22.2812 3.14646 26.1879C4.92332 32.3478 10.1396 35.8299 15.1241 38.5086L35.6276 49.9892C37.2501 50.8977 39.2738 50.2668 40.1477 48.5801L51.191 27.2648Z" fill="white"/>
<path d="M16.4465 68.8235C17.8962 67.3467 19.3653 65.5767 19.3653 63.2604C19.3653 61.785 18.8015 60.37 17.798 59.3267C16.7944 58.2834 15.4333 57.6973 14.0141 57.6973C12.6648 57.6973 11.6297 58.0113 10.5374 58.8866C10.0094 59.3097 9.26219 59.3097 8.73421 58.8866C7.64192 58.0113 6.60676 57.6973 5.2575 57.6973C3.83826 57.6973 2.47715 58.2834 1.47359 59.3267C0.470041 60.37 -0.09375 61.785 -0.09375 63.2604C-0.09375 65.5868 1.36568 67.3569 2.82511 68.8235L8.78225 75.0165C9.25365 75.5066 10.0179 75.5066 10.4893 75.0165L16.4465 68.8235Z" fill="white"/>
<path d="M99.6404 29.644C100.524 27.9787 101.352 26.0549 100.775 24.055C100.408 22.781 99.5684 21.711 98.442 21.0804C97.3157 20.4497 95.9945 20.31 94.7691 20.692C93.6041 21.0552 92.7885 21.605 92.0634 22.6548C91.7129 23.1623 91.0677 23.3634 90.5065 23.1402C89.3453 22.6784 88.3733 22.6859 87.2083 23.0491C85.9829 23.4311 84.9537 24.3035 84.347 25.4745C83.7404 26.6454 83.606 28.0189 83.9735 29.2929C84.5529 31.3016 86.2539 32.4371 87.8793 33.3106L94.5653 37.0543C95.0944 37.3506 95.7543 37.1448 96.0393 36.5948L99.6404 29.644Z" fill="white"/>
<path d="M130.1 77.0275C131.834 76.292 133.688 75.3202 134.498 73.4033C135.015 72.1822 135.036 70.8219 134.559 69.6216C134.081 68.4213 133.143 67.4794 131.951 67.003C130.818 66.5501 129.838 66.4624 128.615 66.8202C128.023 66.9932 127.396 66.7424 127.1 66.215C126.489 65.1239 125.73 64.5165 124.596 64.0636C123.404 63.5872 122.056 63.6154 120.848 64.1419C119.64 64.6685 118.671 65.6503 118.155 66.8714C117.341 68.7967 117.947 70.7515 118.66 72.4552L121.495 79.5802C121.72 80.144 122.362 80.4005 122.929 80.1532L130.1 77.0275Z" fill="white"/>
<path d="M78.4842 93.4256C81.107 92.3158 83.91 90.849 85.1378 87.9521C85.9199 86.1068 85.9544 84.0505 85.2336 82.2354C84.5129 80.4203 83.096 78.9952 81.2946 78.2735C79.582 77.5875 78.1017 77.4538 76.2513 77.9932C75.3569 78.2539 74.4085 77.874 73.9627 77.0764C73.0403 75.4262 71.8928 74.5071 70.1803 73.8211C68.3789 73.0994 66.3406 73.1404 64.5138 73.9349C62.6871 74.7294 61.2214 76.2125 60.4393 78.0577C59.2062 80.9673 60.1203 83.9232 61.1952 86.4996L65.4736 97.274C65.8122 98.1266 66.7822 98.5152 67.6403 98.142L78.4842 93.4256Z" fill="white"/>
<path d="M158.343 23.9903C162.21 22.5084 166.348 20.5 168.201 16.2092C169.382 13.476 169.47 10.3672 168.446 7.56665C167.422 4.76609 165.369 2.50319 162.74 1.27577C160.241 0.108873 158.072 -0.204729 155.348 0.472196C154.031 0.799401 152.647 0.153192 152.008 -1.08726C150.685 -3.65351 149.018 -5.1304 146.519 -6.2973C143.89 -7.52472 140.899 -7.61612 138.206 -6.55139C135.512 -5.48666 133.335 -3.35302 132.154 -0.61985C130.293 3.6897 131.58 8.23088 133.11 12.21L139.189 28.8342C139.67 30.1497 141.086 30.8107 142.351 30.3106L158.343 23.9903Z" fill="white"/>
<path d="M229.029 37.3741C231.356 34.6798 233.685 31.481 233.441 27.5143C233.286 24.9875 232.171 22.6285 230.342 20.9562C228.513 19.2839 226.121 18.4353 223.69 18.5971C221.379 18.7509 219.64 19.4066 217.862 21.0302C217.002 21.815 215.722 21.9002 214.774 21.2357C212.811 19.8611 211.005 19.4414 208.694 19.5951C206.264 19.7569 203.994 20.9158 202.386 22.8169C200.777 24.7179 199.961 27.2054 200.116 29.7322C200.362 33.7163 203.048 36.5813 205.702 38.9266L216.557 48.8535C217.416 49.639 218.725 49.5519 219.48 48.6589L229.029 37.3741Z" fill="white"/>
<path d="M276.596 26.2175C278.467 25.9974 280.52 25.5799 281.84 23.9332C282.681 22.8843 283.088 21.5556 282.97 20.2395C282.852 18.9234 282.219 17.7276 281.211 16.9153C280.253 16.143 279.339 15.7737 278.064 15.7709C277.448 15.7695 276.917 15.3418 276.783 14.7388C276.506 13.4913 275.95 12.6755 274.992 11.9032C273.984 11.0909 272.683 10.7285 271.376 10.8958C270.068 11.0631 268.861 11.7464 268.02 12.7953C266.694 14.4492 266.721 16.543 266.922 18.421L267.622 26.2335C267.677 26.8517 268.22 27.2891 268.834 27.2106L276.596 26.2175Z" fill="white"/>
</g>
</g>
<defs>
<clipPath id="clip0_5155_3">
<rect y="0.197998" width="300" height="101.38" rx="10" fill="white"/>
</clipPath>
</defs>
</svg>
