<svg width="140" height="110" viewBox="0 0 140 110" fill="none" xmlns="http://www.w3.org/2000/svg">
<g clip-path="url(#clip0_4999_3)">
<path d="M110 89.0595L105.435 89.3053L102.768 85.6537C102.29 84.9985 101.254 85.2063 101.017 86.0063L99.696 90.4577L95.346 92.0007C94.5599 92.2801 94.414 93.3352 95.0823 93.7788L98.831 96.2868L98.8082 100.895C98.804 101.713 99.7368 102.167 100.395 101.643L104.032 98.7386L108.366 100.042C109.144 100.276 109.881 99.4969 109.612 98.7256L108.114 94.423L110.818 90.622C111.299 89.9429 110.824 89.0155 110 89.0595Z" fill="#FAC55F"/>
<path d="M117.453 12.2205L116.071 16.8307L111.503 18.1726C110.684 18.4126 110.521 19.5133 111.229 20.0329L115.169 22.9266L115.148 27.7859C115.145 28.6642 116.139 29.1845 116.816 28.6804L120.636 25.8596L125.193 27.5232C126.002 27.8187 126.784 27.0564 126.499 26.2179L124.917 21.58L127.752 17.7505C128.262 17.0626 127.752 16.0549 126.892 16.0469L122.096 15.9985L119.293 11.9664C118.791 11.248 117.703 11.3883 117.453 12.2205Z" fill="#FAC55F"/>
<path d="M0.761409 0.378888L1.12446 11.0221L-7.50269 17.0665C-9.05046 18.1491 -8.61404 20.5721 -6.76181 21.1608L3.54526 24.4406L6.93952 34.6429C7.55426 36.4865 10.005 36.8747 11.0687 35.3385L17.082 26.7227L27.8128 26.987C29.7177 27.0343 30.8191 24.8826 29.6279 23.3266L23.0309 14.7217L26.2651 4.68784C26.8469 2.88516 25.0654 1.13309 23.2566 1.72456L13.1668 5.0157L4.43818 -1.45499C2.87845 -2.60644 0.696671 -1.54276 0.761409 0.378888Z" fill="#FAC55F"/>
<path d="M91.5387 -14.2668L86.4655 -8.11442L78.6276 -9.00005C77.2223 -9.15992 76.2658 -7.5839 77.0134 -6.33526L81.1709 0.615479L78.0172 8.02331C77.4482 9.36258 78.6309 10.7955 79.9894 10.4609L87.6355 8.60764L93.5259 14.0763C94.5714 15.0473 96.2563 14.386 96.3593 12.9222L96.9238 4.82285L103.713 0.795971C104.934 0.0729052 104.803 -1.79357 103.494 -2.35844L96.2009 -5.5142L94.5111 -13.4729C94.2068 -14.8923 92.4551 -15.3772 91.5387 -14.2668Z" fill="#FAC55F"/>
<path d="M37.9633 3.30731L40.2361 4.97015L40.0841 7.7516C40.0565 8.25033 40.6317 8.55531 41.0567 8.26623L43.4222 6.65831L46.0984 7.61872C46.5822 7.79197 47.0633 7.34569 46.9175 6.87355L46.1078 4.21574L47.9154 2.02718C48.2364 1.63871 47.9687 1.05822 47.4506 1.05183L44.5835 1.01842L43.0249 -1.29303C42.7451 -1.70847 42.0897 -1.62411 41.9173 -1.15134L40.9538 1.48462L38.1824 2.24311C37.6882 2.37943 37.5531 3.00692 37.9633 3.30731Z" fill="#FAC55F"/>
<path d="M132.352 40.6767L134.625 42.3395L134.473 45.121C134.446 45.6197 135.021 45.9247 135.446 45.6356L137.811 44.0277L140.488 44.9881C140.971 45.1614 141.452 44.7151 141.307 44.2429L140.497 41.5851L142.305 39.3966C142.626 39.0081 142.358 38.4276 141.84 38.4212L138.973 38.3878L137.414 36.0764C137.134 35.6609 136.479 35.7453 136.306 36.218L135.343 38.854L132.572 39.6125C132.077 39.7488 131.942 40.3763 132.352 40.6767Z" fill="#FAC55F"/>
<path d="M-2.58904 72.4386L1.30608 71.3462L4.3136 73.9857C4.85252 74.4594 5.70742 74.0801 5.75785 73.3436L6.04008 69.2445L9.49953 67.0731C10.1245 66.6802 10.0471 65.7409 9.38439 65.4866L5.66329 64.0433L4.79451 60.0594C4.64041 59.3521 3.74715 59.1394 3.2802 59.7192L0.69869 62.9286L-3.29548 62.6386C-4.01315 62.5862 -4.4993 63.4015 -4.11815 64.0157L-1.99498 67.4429L-3.59692 71.2469C-3.8814 71.9262 -3.29238 72.6356 -2.58904 72.4386Z" fill="#FAC55F"/>
<path d="M142.063 78.521L137.559 73.5675L139.235 67.1609C139.536 66.0123 138.342 65.0286 137.214 65.4999L130.94 68.1209L125.163 64.6118C124.118 63.9782 122.786 64.7891 122.901 65.9581L123.524 72.5338L118.273 76.7725C117.341 77.5247 117.688 79.0041 118.892 79.2653L125.554 80.7058L128.086 86.8307C128.541 87.9314 130.107 88.0464 130.733 87.0271L134.231 81.3452L141.046 80.8957C142.262 80.8131 142.875 79.4157 142.063 78.521Z" fill="#FAC55F"/>
</g>
<defs>
<clipPath id="clip0_4999_3">
<rect width="140" height="110" rx="10" fill="white"/>
</clipPath>
</defs>
</svg>
