<svg width="300" height="102" viewBox="0 0 300 102" fill="none" xmlns="http://www.w3.org/2000/svg">
<g clip-path="url(#clip0_5155_17)">
<g opacity="0.5">
<path d="M230.549 81.444L222.243 81.8912L217.391 75.2473C216.521 74.0553 214.636 74.4333 214.205 75.8888L211.802 83.9879L203.887 86.7953C202.457 87.3037 202.192 89.2235 203.408 90.0305L210.228 94.5937L210.187 102.977C210.179 104.466 211.876 105.293 213.073 104.338L219.691 99.0546L227.576 101.426C228.993 101.853 230.334 100.434 229.844 99.031L227.119 91.2026L232.038 84.287C232.913 83.0513 232.049 81.3639 230.549 81.444Z" fill="white"/>
<path d="M244.11 -7.79129L241.595 0.596687L233.285 3.03823C231.794 3.4749 231.497 5.47747 232.786 6.42299L239.954 11.6879L239.917 20.5292C239.911 22.1271 241.718 23.0738 242.951 22.1566L249.901 17.0244L258.192 20.0512C259.664 20.5888 261.088 19.2018 260.569 17.6763L257.691 9.23778L262.848 2.2702C263.776 1.01863 262.848 -0.814807 261.283 -0.829433L252.557 -0.917517L247.457 -8.25361C246.544 -9.56076 244.565 -9.30554 244.11 -7.79129Z" fill="white"/>
<path d="M8.32067 -8.57013L8.98123 10.7947L-6.71547 21.7922C-9.53158 23.762 -8.73753 28.1706 -5.36748 29.2415L13.3858 35.209L19.5615 53.7717C20.68 57.1259 25.1389 57.8323 27.0744 55.0373L38.0152 39.3613L57.5394 39.8422C61.0054 39.9282 63.0093 36.0132 60.8419 33.1821L48.8389 17.526L54.7234 -0.730195C55.7821 -4.01009 52.5406 -7.1979 49.2497 -6.12174L30.8918 -0.13366L15.0104 -11.9068C12.1725 -14.0018 8.20288 -12.0665 8.32067 -8.57013Z" fill="white"/>
<path d="M183.417 -13.5487L174.187 -2.35478L159.926 -3.96616C157.369 -4.25703 155.629 -1.38953 156.989 0.882312L164.553 13.5289L158.815 27.0071C157.78 29.4438 159.932 32.0509 162.404 31.4422L176.315 28.0702L187.033 38.0202C188.935 39.7869 192.001 38.5836 192.188 35.9204L193.215 21.184L205.568 13.8573C207.789 12.5417 207.55 9.14571 205.17 8.11795L191.9 2.37619L188.825 -12.1043C188.272 -14.6869 185.085 -15.5691 183.417 -13.5487Z" fill="white"/>
<path d="M83.7955 73.5142L78.7534 87.1188L64.7546 90.2804C62.244 90.8454 61.5421 94.1254 63.5729 95.8245L74.8713 105.285L73.8782 119.9C73.7006 122.542 76.5894 124.298 78.7241 122.911L90.7566 115.157L104.147 121.035C106.524 122.079 109.025 119.936 108.327 117.359L104.457 103.102L113.719 92.1248C115.384 90.153 114.044 87.0237 111.458 86.8347L97.0379 85.7698L89.3781 73.1024C88.0069 70.8449 84.7069 71.0583 83.7955 73.5142Z" fill="white"/>
<path d="M85.4873 17.0383L89.6226 20.0638L89.346 25.1245C89.2958 26.0319 90.3423 26.5868 91.1155 26.0608L95.4195 23.1353L100.289 24.8827C101.169 25.1979 102.044 24.3859 101.779 23.5269L100.306 18.6912L103.595 14.7092C104.179 14.0024 103.692 12.9462 102.749 12.9346L97.5324 12.8738L94.6967 8.66819C94.1874 7.91232 92.995 8.06581 92.6813 8.92599L90.9283 13.722L85.8859 15.102C84.9867 15.3501 84.7409 16.4918 85.4873 17.0383Z" fill="white"/>
<path d="M150.112 75.7236L154.248 78.7491L153.971 83.8098C153.921 84.7172 154.967 85.2721 155.74 84.7461L160.045 81.8206L164.914 83.568C165.794 83.8832 166.669 83.0712 166.404 82.2122L164.931 77.3765L168.22 73.3945C168.804 72.6877 168.317 71.6315 167.374 71.6199L162.157 71.5591L159.322 67.3535C158.812 66.5976 157.62 66.7511 157.306 67.6113L155.553 72.4073L150.511 73.7873C149.612 74.0354 149.366 75.1771 150.112 75.7236Z" fill="white"/>
<path d="M271.219 21.4123L275.354 24.4378L275.078 29.4985C275.028 30.4059 276.074 30.9608 276.847 30.4348L281.151 27.5093L286.021 29.2567C286.901 29.572 287.776 28.76 287.511 27.9009L286.038 23.0652L289.327 19.0832C289.911 18.3764 289.424 17.3202 288.481 17.3086L283.264 17.2478L280.429 13.0422C279.919 12.2863 278.727 12.4398 278.413 13.3L276.66 18.096L271.618 19.4761C270.719 19.7241 270.473 20.8658 271.219 21.4123Z" fill="white"/>
<path d="M18.4757 90.9391L25.5627 88.9515L31.0348 93.754C32.0153 94.6159 33.5708 93.9258 33.6625 92.5857L34.176 85.1275L40.4703 81.1769C41.6075 80.462 41.4666 78.7529 40.2608 78.2903L33.4905 75.6643L31.9098 68.4157C31.6294 67.1289 30.0041 66.7419 29.1545 67.7967L24.4576 73.6362L17.1904 73.1085C15.8846 73.0132 15.0001 74.4965 15.6936 75.6141L19.5566 81.8497L16.642 88.7708C16.1244 90.0068 17.196 91.2975 18.4757 90.9391Z" fill="white"/>
<path d="M295.886 77.2687L287.691 68.256L290.741 56.5995C291.289 54.5098 289.115 52.7198 287.064 53.5775L275.649 58.3462L265.137 51.9615C263.237 50.8089 260.812 52.2842 261.022 54.4112L262.155 66.3754L252.601 74.0873C250.905 75.4561 251.537 78.1477 253.728 78.6229L265.85 81.244L270.456 92.3878C271.283 94.3905 274.133 94.5998 275.273 92.7452L281.636 82.4072L294.037 81.5893C296.249 81.439 297.364 78.8966 295.886 77.2687Z" fill="white"/>
</g>
</g>
<defs>
<clipPath id="clip0_5155_17">
<rect y="0.577881" width="300" height="101.38" rx="10" fill="white"/>
</clipPath>
</defs>
</svg>
