<svg width="140" height="110" viewBox="0 0 140 110" fill="none" xmlns="http://www.w3.org/2000/svg">
<g clip-path="url(#clip0_5142_68)">
<path d="M129.615 60.9524C130.719 59.0392 133.166 58.3837 135.079 59.4883L143.721 64.4779C145.634 65.5825 146.29 68.0289 145.185 69.942L135.516 86.69C134.411 88.6031 131.965 89.2586 130.052 88.1541L121.409 83.1644C119.496 82.0598 118.841 79.6135 119.945 77.7003L129.615 60.9524Z" fill="#99F3BD"/>
<path d="M93.6089 88.1364C93.073 86.767 93.7487 85.2226 95.1181 84.6868L101.304 82.2663C102.673 81.7305 104.217 82.4061 104.753 83.7755L109.444 95.7625C109.98 97.1319 109.304 98.6763 107.935 99.2121L101.749 101.633C100.38 102.168 98.8354 101.493 98.2995 100.123L93.6089 88.1364Z" fill="#99F3BD"/>
<path d="M130.519 39.8191C130.092 38.7279 130.631 37.4971 131.722 37.0701L136.651 35.1411C137.743 34.7141 138.973 35.2526 139.4 36.3438L143.139 45.8966C143.566 46.9878 143.027 48.2186 141.936 48.6456L137.006 50.5746C135.915 51.0016 134.684 50.4631 134.257 49.3719L130.519 39.8191Z" fill="#99F3BD"/>
<path d="M112.555 14.117C112.607 12.383 114.055 11.0195 115.789 11.0716L123.622 11.3068C125.356 11.3589 126.719 12.8068 126.667 14.5408L126.211 29.7204C126.159 31.4544 124.711 32.8179 122.977 32.7658L115.144 32.5305C113.41 32.4785 112.047 31.0305 112.099 29.2965L112.555 14.117Z" fill="#99F3BD"/>
<path d="M86.4974 -11.6108C87.8574 -13.9104 90.8242 -14.6721 93.1238 -13.3121L103.512 -7.16832C105.812 -5.80827 106.573 -2.84151 105.213 -0.541886L93.3072 19.5891C91.9471 21.8887 88.9804 22.6504 86.6808 21.2904L76.2927 15.1466C73.9931 13.7866 73.2314 10.8198 74.5914 8.52017L86.4974 -11.6108Z" fill="#99F3BD"/>
<path d="M36.8369 -1.05414C36.5589 -2.87499 37.8096 -4.57647 39.6304 -4.85452L47.8557 -6.11051C49.6766 -6.38856 51.378 -5.13787 51.6561 -3.31702L54.0901 12.6227C54.3681 14.4436 53.1174 16.1451 51.2966 16.4231L43.0713 17.6791C41.2505 17.9571 39.549 16.7064 39.2709 14.8856L36.8369 -1.05414Z" fill="#99F3BD"/>
<path d="M-9.18487 9.46021C-10.6485 6.45311 -9.39723 2.82889 -6.39013 1.36529L7.19378 -5.24624C10.2009 -6.70984 13.8251 -5.4586 15.2887 -2.4515L28.1011 23.8727C29.5648 26.8798 28.3135 30.504 25.3064 31.9676L11.7225 38.5791C8.7154 40.0427 5.09118 38.7915 3.62757 35.7844L-9.18487 9.46021Z" fill="#99F3BD"/>
<path d="M-3.91795 60.9793C-4.02529 59.552 -2.95528 58.308 -1.52801 58.2007L4.91935 57.7158C6.34661 57.6084 7.59066 58.6785 7.69799 60.1057L8.63764 72.6C8.74498 74.0273 7.67497 75.2713 6.2477 75.3787L-0.19966 75.8636C-1.62693 75.9709 -2.87097 74.9009 -2.97831 73.4736L-3.91795 60.9793Z" fill="#99F3BD"/>
</g>
<defs>
<clipPath id="clip0_5142_68">
<rect width="140" height="110" rx="10" fill="white"/>
</clipPath>
</defs>
</svg>
