<svg width="297" height="103" viewBox="0 0 297 103" fill="none" xmlns="http://www.w3.org/2000/svg">
<g opacity="0.5">
<path d="M265.002 49.4951C267.663 44.886 273.557 43.3069 278.166 45.9679L298.986 57.9886C303.595 60.6497 305.175 66.5433 302.514 71.1524L279.219 111.5C276.558 116.109 270.664 117.689 266.055 115.028L245.234 103.007C240.625 100.346 239.046 94.4522 241.707 89.8431L265.002 49.4951Z" fill="white"/>
<path d="M193.771 86.4129C192.147 84.2802 192.559 81.2346 194.692 79.6104L204.326 72.2735C206.459 70.6493 209.504 71.0616 211.128 73.1943L225.346 91.8642C226.971 93.9969 226.558 97.0425 224.426 98.6667L214.792 106.004C212.659 107.628 209.613 107.215 207.989 105.083L193.771 86.4129Z" fill="white"/>
<path d="M91.934 70.1796C93.3007 67.8123 96.3277 67.0013 98.6949 68.368L109.388 74.5418C111.756 75.9086 112.567 78.9355 111.2 81.3028L99.2357 102.026C97.8689 104.393 94.842 105.204 92.4747 103.837L81.7813 97.6633C79.4141 96.2966 78.603 93.2696 79.9697 90.9024L91.934 70.1796Z" fill="white"/>
<path d="M264.744 21.912C263.696 20.4631 264.021 18.4391 265.47 17.3913L272.015 12.6578C273.464 11.61 275.488 11.9351 276.536 13.384L285.709 26.0676C286.757 27.5165 286.432 29.5405 284.983 30.5883L278.438 35.3217C276.989 36.3696 274.965 36.0445 273.917 34.5956L264.744 21.912Z" fill="white"/>
<path d="M230.56 26.6588C230.64 24.0129 232.849 21.9323 235.495 22.0118L247.447 22.3708C250.093 22.4502 252.174 24.6596 252.095 27.3056L251.399 50.4682C251.319 53.1142 249.11 55.1947 246.464 55.1152L234.512 54.7563C231.866 54.6768 229.785 52.4674 229.865 49.8215L230.56 26.6588Z" fill="white"/>
<path d="M186.797 -9.21592C188.872 -12.725 193.399 -13.8872 196.908 -11.8119L212.759 -2.43706C216.268 -0.36174 217.43 4.16527 215.355 7.6743L197.188 38.3924C195.112 41.9015 190.585 43.0637 187.076 40.9884L171.225 31.6136C167.716 29.5383 166.554 25.0112 168.629 21.5022L186.797 -9.21592Z" fill="white"/>
<path d="M106.005 0.971751C105.581 -1.8067 107.489 -4.40302 110.268 -4.82729L122.819 -6.74383C125.597 -7.1681 128.193 -5.25966 128.618 -2.4812L132.332 21.8415C132.756 24.6199 130.848 27.2162 128.069 27.6405L115.518 29.557C112.74 29.9813 110.143 28.0729 109.719 25.2944L106.005 0.971751Z" fill="white"/>
<path d="M26.5218 4.32737C24.2885 -0.261195 26.1978 -5.79143 30.7864 -8.02477L51.5142 -18.1134C56.1028 -20.3467 61.633 -18.4374 63.8664 -13.8488L83.417 26.3196C85.6504 30.9081 83.7411 36.4384 79.1525 38.6717L58.4247 48.7603C53.8361 50.9937 48.3058 49.0844 46.0725 44.4958L26.5218 4.32737Z" fill="white"/>
<path d="M0.774592 74.1404C0.503205 70.5318 3.20854 67.3864 6.81713 67.1151L23.1181 65.8891C26.7267 65.6177 29.8721 68.3231 30.1435 71.9317L32.5192 103.521C32.7906 107.13 30.0852 110.275 26.4766 110.547L10.1756 111.773C6.56704 112.044 3.4217 109.339 3.15032 105.73L0.774592 74.1404Z" fill="white"/>
</g>
</svg>
