<svg width="140" height="110" viewBox="0 0 140 110" fill="none" xmlns="http://www.w3.org/2000/svg">
<g clip-path="url(#clip0_4999_46)">
<path d="M137.613 72.5462C137.738 70.2224 137.662 67.6449 135.936 65.7611C134.837 64.5611 133.306 63.8469 131.68 63.7756C130.055 63.7043 128.467 64.2817 127.267 65.3809C126.126 66.4258 125.485 67.4829 125.214 69.0408C125.082 69.7938 124.451 70.3725 123.689 70.4373C122.113 70.5713 121.004 71.1176 119.863 72.1625C118.663 73.2617 117.949 74.7925 117.878 76.4182C117.807 78.044 118.384 79.6315 119.483 80.8314C121.216 82.7235 123.769 83.0329 126.096 83.0954L135.746 83.5187C136.51 83.5522 137.156 82.9603 137.189 82.1966L137.613 72.5462Z" fill="#FA725F"/>
<path d="M108.498 96.387C109.234 95.1423 109.931 93.6998 109.52 92.1667C109.258 91.1901 108.619 90.3575 107.744 89.8519C106.868 89.3464 105.828 89.2094 104.851 89.4711C103.923 89.7199 103.266 90.1186 102.67 90.8994C102.382 91.2768 101.867 91.4145 101.429 91.2318C100.522 90.8538 99.7542 90.8369 98.8258 91.0856C97.8492 91.3473 97.0165 91.9862 96.511 92.8618C96.0055 93.7374 95.8685 94.7779 96.1302 95.7545C96.5428 97.2943 97.861 98.1968 99.1253 98.8985L104.323 101.899C104.734 102.137 105.26 101.996 105.497 101.585L108.498 96.387Z" fill="#FA725F"/>
<path d="M22.1487 18.0627C23.7735 15.1183 25.2948 11.7168 24.2344 8.1807C23.5589 5.92827 22.0164 4.03641 19.946 2.92132C17.8757 1.80623 15.4472 1.55924 13.1948 2.23469C11.0534 2.87684 9.5543 3.84884 8.2215 5.70505C7.57726 6.60229 6.39141 6.9579 5.35976 6.56322C3.22547 5.74671 1.43886 5.76003 -0.702514 6.40218C-2.95494 7.07763 -4.8468 8.62019 -5.96189 10.6905C-7.07698 12.7608 -7.32397 15.1893 -6.64852 17.4418C-5.58349 20.9933 -2.45693 23.001 0.530715 24.5454L12.8203 31.1646C13.7928 31.6884 15.0057 31.3247 15.5295 30.3522L22.1487 18.0627Z" fill="#FA725F"/>
<path d="M6.16008 66.3751C7.02901 65.5237 7.90961 64.5031 7.90961 63.1677C7.90961 62.317 7.57168 61.5012 6.97016 60.8997C6.36864 60.2981 5.55281 59.9602 4.70214 59.9602C3.89341 59.9602 3.27295 60.1412 2.61825 60.6459C2.30178 60.8899 1.85392 60.8899 1.53746 60.6459C0.882749 60.1412 0.26229 59.9602 -0.54644 59.9602C-1.39711 59.9602 -2.21294 60.2981 -2.81446 60.8997C-3.41598 61.5012 -3.75391 62.317 -3.75391 63.1677C-3.75391 64.509 -2.87914 65.5295 -2.00438 66.3751L1.56625 69.9458C1.8488 70.2283 2.3069 70.2283 2.58945 69.9458L6.16008 66.3751Z" fill="#FA725F"/>
<path d="M50.2845 8.78562C50.8143 7.82547 51.3104 6.71628 50.9646 5.56319C50.7444 4.82869 50.2414 4.21177 49.5662 3.84815C48.8911 3.48453 48.0992 3.40399 47.3647 3.62425C46.6664 3.83365 46.1776 4.15061 45.743 4.7559C45.5329 5.04849 45.1462 5.16445 44.8098 5.03575C44.1138 4.76949 43.5312 4.77383 42.8329 4.98323C42.0984 5.20349 41.4815 5.70651 41.1179 6.38162C40.7542 7.05674 40.6737 7.84866 40.894 8.58316C41.2413 9.74128 42.2608 10.396 43.2351 10.8996L47.2426 13.0581C47.5597 13.2289 47.9552 13.1103 48.126 12.7931L50.2845 8.78562Z" fill="#FA725F"/>
<path d="M92.8079 15.3338C95.1259 14.4794 97.6062 13.3214 98.7172 10.8475C99.4248 9.27169 99.4775 7.47927 98.8637 5.86458C98.2498 4.24989 97.0196 2.9452 95.4438 2.23752C93.9456 1.56473 92.6457 1.38392 91.013 1.77421C90.2238 1.96286 89.3941 1.59028 89.0109 0.875091C88.2179 -0.604505 87.2191 -1.45602 85.721 -2.12881C84.1452 -2.83649 82.3527 -2.88919 80.738 -2.27531C79.1234 -1.66143 77.8187 -0.431258 77.111 1.14458C75.9951 3.62929 76.7666 6.24755 77.6836 8.54172L81.3276 18.1266C81.616 18.8851 82.4646 19.2662 83.223 18.9778L92.8079 15.3338Z" fill="#FA725F"/>
<path d="M125.766 22.9702C127.008 21.587 128.252 19.9448 128.121 17.9084C128.038 16.6112 127.443 15.4002 126.467 14.5416C125.491 13.6831 124.214 13.2474 122.917 13.3305C121.684 13.4094 120.755 13.7461 119.806 14.5796C119.347 14.9825 118.665 15.0262 118.158 14.6851C117.111 13.9794 116.147 13.7639 114.913 13.8429C113.616 13.9259 112.405 14.5209 111.547 15.4968C110.688 16.4728 110.253 17.7499 110.336 19.047C110.467 21.0924 111.9 22.5632 113.317 23.7673L119.11 28.8635C119.568 29.2668 120.267 29.2221 120.67 28.7636L125.766 22.9702Z" fill="#FA725F"/>
<path d="M136.716 46.4269C137.521 45.6639 138.339 44.747 138.359 43.5296C138.372 42.7541 138.077 42.0053 137.538 41.4478C136.998 40.8903 136.26 40.5699 135.484 40.557C134.747 40.5447 134.179 40.7003 133.574 41.1504C133.282 41.368 132.874 41.3612 132.589 41.134C132 40.664 131.437 40.4895 130.7 40.4772C129.924 40.4643 129.175 40.7599 128.618 41.2991C128.061 41.8383 127.74 42.5769 127.727 43.3524C127.707 44.5751 128.489 45.5187 129.273 46.3028L132.474 49.612C132.727 49.8739 133.145 49.8809 133.407 49.6276L136.716 46.4269Z" fill="#FA725F"/>
</g>
<defs>
<clipPath id="clip0_4999_46">
<rect width="140" height="110" rx="10" fill="white"/>
</clipPath>
</defs>
</svg>
